<?xml version="1.0" encoding="UTF-8" standalone="no"?>
<svg
   height="48"
   viewBox="0 96 960 960"
   width="48"
   version="1.1"
   id="svg5254"
   xmlns="http://www.w3.org/2000/svg"
   xmlns:svg="http://www.w3.org/2000/svg">
  <defs
     id="defs5258" />
  <g
     id="g1151"
     style="stroke:none"
     transform="matrix(6.9631244,1.8037933,-1.8558418,7.1640453,820.44769,-418.66028)">
    <path
       d="m 27.872502,185.79503 c 0.660218,-0.60846 1.400224,-1.51458 2.020817,-2.47443 0.530513,-0.82054 0.751995,-1.3432 1.471491,-3.47222 1.61967,-4.7927 3.133954,-8.60227 3.680531,-9.25932 0.213793,-0.25704 0.423823,-0.35784 1.505384,-0.72295 2.451459,-0.8274 3.957691,-1.15721 5.501339,-1.20449 2.594915,-0.0795 6.337536,-1.24138 7.909425,-2.45553 1.732801,-1.33841 2.472955,-3.07156 2.160714,-5.05945 -0.181232,-1.15384 -0.451994,-1.81891 -1.081552,-2.6566 -0.404544,-0.53828 -0.615793,-0.7287 -1.156018,-1.04206 -1.063915,-0.61712 -1.641398,-0.65783 -3.22491,-0.22731 -4.778072,1.29904 -9.758435,2.10005 -12.723005,2.04627 -2.036436,-0.0369 -3.233539,-0.42904 -4.827988,-1.5814 -4.532244,-3.90685 -8.098026,-7.21501 -11.438892,-10.50009 -3.340865,-3.28507 -6.456814,-6.54706 -10.0893926,-10.36156 l -0.231752,-0.24281 0.650601,-1.08042 c 2.1541756,-3.57727 3.9123416,-8.35845 4.5836436,-12.4648 1.053614,-6.44484 0.178739,-12.37277 -2.6926446,-18.24475 -0.690264,-1.41161 -3.302869,-5.289055 -4.409004,-6.543527 -4.74079976,-5.376623 -9.7113799,-8.568855 -15.9779604,-10.261441 -6.663421,-1.799783 -15.328291,-1.130552 -21.996113,1.698854 -3.475821,1.474924 -7.094057,4.293277 -9.652453,7.518585 -5.666387,7.143489 -7.159106,16.514349 -4.512659,28.329079 l 0.372331,1.66224 -1.434575,1.023 c -0.789013,0.56264 -7.098109,5.00337 -14.020213,9.86828 l -12.585621,8.8453 -0.181267,0.43276 c -0.32129,0.76706 -0.253416,1.82037 0.173356,2.69025 0.118653,0.24166 0.447002,0.67978 0.736988,0.983 0.599857,0.62721 0.393601,0.53456 7.055772,3.16962 8.374177,3.3122 15.766569,5.98661 19.737612,7.14064 1.65309,0.38119 4.928605,2.30756 5.988793,0.1664 3.205253,-7.19867 6.199211,-13.38166 8.545324,-20.90504 0.112026,-0.37151 0.135126,-0.39498 0.276908,-0.28123 1.227205,0.98448 3.099996,2.0633 4.886847,2.81507 6.941582,2.92047 15.214329,3.19227 24.2469526,0.79664 0.9887686,-0.2622 1.94690354,-0.53736 2.12921784,-0.61138 1.74784436,1.15419 2.82890076,3.08386 4.10156996,4.73941 -0.0185,0.0966 -2.49013796,1.38625 -3.80672706,1.98637 -2.50938194,1.14379 -4.79645854,1.90707 -6.88717174,2.29842 -1.152181,0.21568 -2.7494636,0.35431 -3.4161336,0.29646 -0.93915,-0.0815 -2.894171,2.22445 -3.189913,3.76246 -0.253958,1.32071 0.210187,2.72407 1.29861,3.92655 1.024212,1.13148 1.549593,1.4916 2.547664,1.74632 4.2373563,1.08141 11.1880528,-1.23105 19.1459494,-6.36977 l 2.1465146,-1.38608 5.765296,6.06667 5.765306,6.06667 0.108748,0.66629 c 0.383447,2.34935 -0.849277,6.44131 -2.797262,9.28534 -0.941835,1.37507 -1.358761,2.31489 -1.604921,3.61776 -0.23415,1.23924 -0.156319,2.2964 0.250198,3.39866 0.427946,1.1603 1.836193,2.92026 2.852853,3.56532 0.929113,0.58952 2.804198,0.65958 4.136888,0.15456 0.703711,-0.26667 1.621505,-0.83579 2.184377,-1.35459 m 0,0 h 1.27e-4 M -4.5010314,134.34218 c -3.7916898,1.90762 -7.0518796,2.54174 -11.2532866,2.18884 -1.811407,-0.15214 -6.147678,-1.07986 -7.29139,-1.55994 -3.009223,-1.26314 -6.016922,-3.49516 -8.588477,-6.3735 -0.873194,-0.97736 -3.332198,-4.57439 -3.871564,-5.66305 -3.23938,-6.54041 -3.766973,-12.09099 -1.649441,-17.35297 0.725273,-1.80227 2.138012,-3.94845 3.583087,-5.44329 1.662108,-1.719358 4.909007,-3.535209 7.948034,-4.444999 5.513052,-1.650435 11.943576,-0.947055 17.9866915,1.967409 3.2607881,1.572615 4.6654078,2.5942 6.93902364,5.04677 4.64961226,5.01557 6.80921926,10.15388 6.58338526,15.66375 -0.172852,4.21735 -2.086734,8.81999 -5.19581756,12.49534 -0.4904992,0.57982 -0.7080157,0.74902 -2.24392864,1.74554 -0.9356593,0.60659 -2.2612921,1.38552 -2.9464297,1.73017 z m -42.5727506,17.8215 c -2.77561,-0.3299 -7.132957,-1.59656 -11.897402,-3.45853 l -2.190864,-0.85619 0.274178,-0.26649 c 0.150785,-0.14658 4.414886,-3.30019 9.475749,-7.00807 5.060843,-3.70787 9.347065,-6.86146 9.524936,-7.00797 l 0.323432,-0.26635 1.335041,1.12331 c 0.734284,0.61784 1.325139,1.16851 1.313025,1.22376 -0.04363,0.19881 -7.194492,16.53746 -7.254976,16.57651 -0.03412,0.022 -0.440479,-0.005 -0.903106,-0.06 z"
       id="path3334" />
    <path
       d="m 2.90875,124.96191 c 0,0 -0.6349796,-31.700352 -24.933055,-27.120492 0,0 15.8799977,5.027892 24.933055,27.120492 z"
       id="path4947" />
  </g>
</svg>
